<?xml version="1.0" standalone="no"?>
<!DOCTYPE svg PUBLIC "-//W3C//DTD SVG 20010904//EN"
 "http://www.w3.org/TR/2001/REC-SVG-20010904/DTD/svg10.dtd">
<svg version="1.0" xmlns="http://www.w3.org/2000/svg"
 width="260.000000pt" height="260.000000pt" viewBox="0 0 260.000000 260.000000"
 preserveAspectRatio="xMidYMid meet">
<metadata>
Created by potrace 1.11, written by Peter Selinger 2001-2013
</metadata>
<g transform="translate(0.000000,260.000000) scale(0.100000,-0.100000)"
fill="#000000" stroke="none">
<path d="M1599 2566 c-61 -22 -312 -200 -478 -340 -84 -71 -171 -175 -210
-252 -30 -60 -60 -178 -67 -259 -6 -64 11 -196 31 -247 5 -12 -87 -100 -388
-371 -349 -314 -398 -362 -422 -411 -24 -48 -27 -65 -23 -123 2 -38 12 -86 23
-108 27 -57 293 -325 355 -359 94 -51 204 -44 287 20 18 14 104 105 191 202
86 97 235 265 331 372 95 107 177 199 181 203 4 4 46 1 95 -8 174 -30 294 -13
445 62 76 38 111 63 175 128 126 125 393 495 415 573 5 20 10 60 10 87 0 110
-111 262 -219 300 -40 15 -51 24 -56 46 -16 70 -135 194 -210 219 -26 9 -39
23 -64 75 -77 156 -258 243 -402 191z m154 -264 c54 -58 58 -51 -187 -300
-247 -250 -250 -255 -198 -310 36 -38 76 -50 100 -30 9 9 120 106 246 217 248
218 243 215 299 163 50 -47 44 -58 -174 -307 -111 -127 -206 -240 -211 -251
-7 -16 -6 -30 7 -53 15 -29 67 -71 89 -71 5 0 114 104 242 231 203 202 235
230 256 224 31 -9 78 -60 78 -86 0 -42 -278 -420 -368 -501 -85 -77 -189 -112
-311 -106 -72 4 -100 10 -175 43 l-90 38 -45 -51 c-610 -688 -739 -832 -755
-837 -15 -6 -46 20 -149 123 -118 119 -129 132 -116 148 10 12 784 709 882
794 4 3 -6 33 -23 66 -92 182 -78 351 44 508 37 48 253 221 393 316 110 74
124 77 166 32z"/>
</g>
</svg>
